<svg id="图层_1" data-name="图层 1" xmlns="http://www.w3.org/2000/svg" xmlns:xlink="http://www.w3.org/1999/xlink" viewBox="0 0 98 98"><defs><style>.cls-1{fill:#ffdd82;}.cls-2{fill:url(#未命名的渐变_9);}.cls-3{fill:#fff;}</style><linearGradient id="未命名的渐变_9" x1="49" y1="98" x2="49" gradientUnits="userSpaceOnUse"><stop offset="0" stop-color="#fe680e"/><stop offset="0.55" stop-color="#fe9e0e"/><stop offset="1" stop-color="#fe680e"/></linearGradient></defs><title>发布</title><path class="cls-1" d="M49,0A49,49,0,1,1,0,49,49,49,0,0,1,49,0Z"/><path class="cls-2" d="M49,0A49,49,0,1,1,0,49,49,49,0,0,1,49,0Z"/><path class="cls-3" d="M53,53V63a4,4,0,0,1-4,4H45V53H35a4,4,0,0,1-4-4V45H45V35a4,4,0,0,1,4-4h4V45H63a4,4,0,0,1,4,4v4Z"/></svg>