<svg id="图层_1" data-name="图层 1" xmlns="http://www.w3.org/2000/svg" xmlns:xlink="http://www.w3.org/1999/xlink" viewBox="0 0 80 66"><defs><style>.cls-1{fill:#121c31;}.cls-2{fill:url(#未命名的渐变_2);}</style><linearGradient id="未命名的渐变_2" x1="18.65" y1="53.97" x2="18.65" y2="54.97" gradientTransform="matrix(54, 0, 0, -48, -954, 2651)" gradientUnits="userSpaceOnUse"><stop offset="0" stop-color="#ffc379"/><stop offset="0.88" stop-color="#ff6c00"/><stop offset="1" stop-color="#ff6c00"/></linearGradient></defs><title>大咖设计</title><path class="cls-1" d="M33,66A33,33,0,1,1,66,33,33,33,0,0,1,33,66ZM33,5.5A27.5,27.5,0,1,0,60.5,33,27.53,27.53,0,0,0,33,5.5Z"/><path class="cls-2" d="M79.7,33.07,53.79,60a1.1,1.1,0,0,1-1.58,0l-25.91-27a1.07,1.07,0,0,1-.17-1.25L36.41,12.94a1.09,1.09,0,0,1,1-.57H68.63a1.09,1.09,0,0,1,1,.57L79.87,31.82A1.07,1.07,0,0,1,79.7,33.07Z"/></svg>