<svg id="图层_1" data-name="图层 1" xmlns="http://www.w3.org/2000/svg" xmlns:xlink="http://www.w3.org/1999/xlink" viewBox="0 0 66 64"><defs><style>.cls-1{fill:#121c31;}.cls-2{fill:url(#未命名的渐变_2);}</style><linearGradient id="未命名的渐变_2" x1="11.33" y1="52.91" x2="11.33" y2="53.91" gradientTransform="matrix(66, 0, 0, -22, -715, 1198)" gradientUnits="userSpaceOnUse"><stop offset="0" stop-color="#ffc379"/><stop offset="0.88" stop-color="#ff6c00"/><stop offset="1" stop-color="#ff6c00"/></linearGradient></defs><title>精彩活动</title><path class="cls-1" d="M53.57,16.51a4,4,0,0,1-1.94.49h0a3.19,3.19,0,0,1-2.47-1.14,2.68,2.68,0,0,1,.65-3.75c1.63-1.14,2.63-2.53,2.63-3.64a1.59,1.59,0,0,0-.67-1.29c-.94-.79-3.15-1.51-6.28-1C41,7,38,9.88,38,12a3.06,3.06,0,0,1-3.09,2.69A3.35,3.35,0,0,1,33,14a3.35,3.35,0,0,1-1.94.67A3.06,3.06,0,0,1,28,12c0-2.07-3-5-7.48-5.74-3.13-.54-5.34.19-6.28,1a1.59,1.59,0,0,0-.67,1.29c0,1.1,1,2.5,2.63,3.64A2.69,2.69,0,0,1,14.62,17h0a5.12,5.12,0,0,1-2.2-.5c-3.12-2.19-4.92-5.12-4.92-8a8.6,8.6,0,0,1,2.85-6C12.83.34,17.2-.46,21.41.26a17.42,17.42,0,0,1,8.27,3.6A13.89,13.89,0,0,1,33,8,13.26,13.26,0,0,1,36.17,4,18.16,18.16,0,0,1,44.59.26c4.21-.73,8.2.08,10.68,2.16,1.67,1.4,3.24,4,3.24,6C58.5,11.38,56.7,14.31,53.57,16.51Z"/><path class="cls-1" d="M52.78,64H13.22A8.1,8.1,0,0,1,5.13,55.9V32.52a8.1,8.1,0,0,1,8.09-8.09H52.78a8.1,8.1,0,0,1,8.09,8.09V55.9A8.1,8.1,0,0,1,52.78,64ZM13.22,29.83a2.7,2.7,0,0,0-2.7,2.7V55.9a2.7,2.7,0,0,0,2.7,2.7H52.78a2.7,2.7,0,0,0,2.7-2.7V32.52a2.7,2.7,0,0,0-2.7-2.7Z"/><path class="cls-2" d="M3,11.88H63a3,3,0,0,1,3,3v16a3,3,0,0,1-3,3H3a3,3,0,0,1-3-3v-16A3,3,0,0,1,3,11.88Z"/></svg>