<svg id="图层_1" data-name="图层 1" xmlns="http://www.w3.org/2000/svg" xmlns:xlink="http://www.w3.org/1999/xlink" viewBox="0 0 64 64"><defs><style>.cls-1{fill:#121c31;}.cls-2{fill:url(#未命名的渐变_2);}</style><linearGradient id="未命名的渐变_2" x1="10.5" y1="53.2" x2="10.5" y2="54.2" gradientTransform="matrix(44, 0, 0, -50, -430, 2710)" gradientUnits="userSpaceOnUse"><stop offset="0" stop-color="#ffc379"/><stop offset="0.88" stop-color="#ff6c00"/><stop offset="1" stop-color="#ff6c00"/></linearGradient></defs><title>设计榜单</title><path class="cls-1" d="M48.46,35H15.54A15.56,15.56,0,0,1,0,19.46v-8a6.41,6.41,0,0,1,6.4-6.4H57.6a6.41,6.41,0,0,1,6.4,6.4v8A15.56,15.56,0,0,1,48.46,35ZM6.4,10.57a.92.92,0,0,0-.91.91v8A10.07,10.07,0,0,0,15.54,29.51H48.46A10.07,10.07,0,0,0,58.52,19.46v-8a.92.92,0,0,0-.91-.91Z" transform="translate(0)"/><path class="cls-1" d="M41,64H23a3,3,0,0,1,0-6h6V49h6v9h6a3,3,0,0,1,0,6Z" transform="translate(0)"/><path class="cls-2" d="M13,0H51a3,3,0,0,1,3,3V28a22,22,0,0,1-44,0V3A3,3,0,0,1,13,0Z" transform="translate(0)"/></svg>